<svg xmlns="http://www.w3.org/2000/svg" version="1.1" xmlns:xlink="http://www.w3.org/1999/xlink" xmlns:svgjs="http://svgjs.dev/svgjs" width="1000" height="499" viewBox="0 0 1000 499"><g transform="matrix(1,0,0,1,-0.6060476023969272,-0.08979665975778062)"><svg viewBox="0 0 396 198" data-background-color="#333366" preserveAspectRatio="xMidYMid meet" height="499" width="1000" xmlns="http://www.w3.org/2000/svg" xmlns:xlink="http://www.w3.org/1999/xlink"><g id="tight-bounds" transform="matrix(1,0,0,1,0.2399974252746233,0.03563073874155975)"><svg viewBox="0 0 395.52 197.9287372013652" height="197.9287372013652" width="395.52"><g><svg viewBox="0 0 395.52 197.9287372013652" height="197.9287372013652" width="395.52"><g><svg viewBox="0 0 395.52 197.9287372013652" height="197.9287372013652" width="395.52"><g id="textblocktransform"><svg viewBox="0 0 395.52 197.9287372013652" height="197.9287372013652" width="395.52" id="textblock"><g><svg viewBox="0 0 395.52 197.9287372013652" height="197.9287372013652" width="395.52"><g transform="matrix(1,0,0,1,0,0)"><svg width="395.52" viewBox="3.4000015258789062 -35.500003814697266 234.39999389648438 114.30000305175781" height="197.9287372013652" data-palette-color="#ffffff"><svg></svg><svg></svg><svg></svg><g class="wordmark-text-0" data-fill-palette-color="primary" id="text-0"><path xmlns="http://www.w3.org/2000/svg" d="M21.7 0l-7.7-14.55-3.1 4.35v10.2h-7.5v-34.9h7.5v14.6h0.4l3.8-5.8 6.15-8.8h8.4l-10.45 14.75 10.95 20.15zM56.25 0h-22.5v-5.55h7.5v-23.8h-7.5v-5.55h22.5v5.55h-7.5v23.8h7.5zM71.2-12.95v12.95h-7.4v-34.9h13.5c1.7 0 3.217 0.257 4.55 0.77 1.333 0.52 2.457 1.263 3.37 2.23 0.92 0.967 1.613 2.133 2.08 3.5 0.467 1.367 0.7 2.9 0.7 4.6v0c0 2.467-0.533 4.583-1.6 6.35-1.067 1.767-2.583 2.933-4.55 3.5v0l6.85 13.95h-8.2l-5.85-12.95zM71.2-18.75h4.3c1.767 0 2.99-0.333 3.67-1 0.687-0.667 1.03-1.767 1.03-3.3v0-1.5c0-1.533-0.343-2.633-1.03-3.3-0.68-0.667-1.903-1-3.67-1v0h-4.3zM111.7 0l-7.7-14.55-3.1 4.35v10.2h-7.5v-34.9h7.5v14.6h0.4l3.8-5.8 6.15-8.8h8.4l-10.45 14.75 10.95 20.15zM146.3 0h-22.3v-34.9h22.3v6.15h-14.8v8h14.3v6.15h-14.3v8.45h14.8zM167.95 0l-7.95-23.2h-0.55v23.2h-6.4v-34.9h9l7.95 23.2h0.55v-23.2h6.4v34.9zM206.3 0h-22.3v-34.9h22.3v6.15h-14.8v8h14.3v6.15h-14.3v8.45h14.8zM224.45 0.6v0c-2.933 0-5.483-0.483-7.65-1.45-2.167-0.967-3.917-2.283-5.25-3.95v0l4.35-4.8c1.267 1.4 2.657 2.433 4.17 3.1 1.52 0.667 3.063 1 4.63 1v0c1.8 0 3.167-0.4 4.1-1.2 0.933-0.8 1.4-1.95 1.4-3.45v0c0-1.233-0.357-2.167-1.07-2.8-0.72-0.633-1.93-1.083-3.63-1.35v0l-3.65-0.6c-3.133-0.533-5.4-1.693-6.8-3.48-1.4-1.78-2.1-3.953-2.1-6.52v0c0-3.367 1.1-5.977 3.3-7.83 2.2-1.847 5.283-2.77 9.25-2.77v0c2.7 0 5.05 0.417 7.05 1.25 2 0.833 3.617 1.967 4.85 3.4v0l-4.25 4.75c-0.933-1.033-2.033-1.843-3.3-2.43-1.267-0.58-2.7-0.87-4.3-0.87v0c-3.367 0-5.05 1.383-5.05 4.15v0c0 1.2 0.377 2.1 1.13 2.7 0.747 0.6 1.97 1.05 3.67 1.35v0l3.65 0.65c2.833 0.5 5.017 1.567 6.55 3.2 1.533 1.633 2.3 3.833 2.3 6.6v0c0 1.633-0.283 3.14-0.85 4.52-0.567 1.387-1.417 2.587-2.55 3.6-1.133 1.02-2.527 1.813-4.18 2.38-1.647 0.567-3.57 0.85-5.77 0.85z" fill="#ffffff" fill-rule="nonzero" stroke="none" stroke-width="1" stroke-linecap="butt" stroke-linejoin="miter" stroke-miterlimit="10" stroke-dasharray="" stroke-dashoffset="0" font-family="none" font-weight="none" font-size="none" text-anchor="none" style="mix-blend-mode: normal" data-fill-palette-color="primary" opacity="1"></path><path xmlns="http://www.w3.org/2000/svg" d="M11.5 39.1h-7.5v-34.9h23.15v6.15h-15.65v8h14v6.15h-14zM56.25 39.1h-22.5v-5.55h7.5v-23.8h-7.5v-5.55h22.5v5.55h-7.5v23.8h7.5zM87.15 39.1h-22.55v-34.9h7.55v28.75h15zM111.55 39.1v-15.55l0.4-9.75h-0.45l-6.5 17.95-6.5-17.95h-0.45l0.4 9.75v15.55h-6.5v-34.9h8.85l4.3 11.75h0.4l4.3-11.75h8.25v34.9z" fill="#ffffff" fill-rule="nonzero" stroke="none" stroke-width="1" stroke-linecap="butt" stroke-linejoin="miter" stroke-miterlimit="10" stroke-dasharray="" stroke-dashoffset="0" font-family="none" font-weight="none" font-size="none" text-anchor="none" style="mix-blend-mode: normal" data-fill-palette-color="primary" opacity="1"></path><path xmlns="http://www.w3.org/2000/svg" d="M11.5 78.2h-7.5v-34.9h23.15v6.15h-15.65v8h14v6.15h-14zM56.3 78.2h-22.3v-34.9h22.3v6.15h-14.8v8h14.3v6.15h-14.3v8.45h14.8zM74.45 78.8v0c-2.933 0-5.483-0.483-7.65-1.45-2.167-0.967-3.917-2.283-5.25-3.95v0l4.35-4.8c1.267 1.4 2.66 2.433 4.18 3.1 1.513 0.667 3.053 1 4.62 1v0c1.8 0 3.167-0.4 4.1-1.2 0.933-0.8 1.4-1.95 1.4-3.45v0c0-1.233-0.357-2.167-1.07-2.8-0.72-0.633-1.93-1.083-3.63-1.35v0l-3.65-0.6c-3.133-0.533-5.4-1.693-6.8-3.48-1.4-1.78-2.1-3.953-2.1-6.52v0c0-3.367 1.1-5.977 3.3-7.83 2.2-1.847 5.283-2.77 9.25-2.77v0c2.7 0 5.05 0.417 7.05 1.25 2 0.833 3.617 1.967 4.85 3.4v0l-4.25 4.75c-0.933-1.033-2.033-1.843-3.3-2.43-1.267-0.58-2.7-0.87-4.3-0.87v0c-3.367 0-5.05 1.383-5.05 4.15v0c0 1.2 0.377 2.1 1.13 2.7 0.747 0.6 1.97 1.05 3.67 1.35v0l3.65 0.65c2.833 0.5 5.017 1.567 6.55 3.2 1.533 1.633 2.3 3.833 2.3 6.6v0c0 1.633-0.283 3.14-0.85 4.52-0.567 1.387-1.417 2.587-2.55 3.6-1.133 1.02-2.527 1.813-4.18 2.38-1.647 0.567-3.57 0.85-5.77 0.85zM118.8 49.45h-10.05v28.75h-7.5v-28.75h-10.05v-6.15h27.6zM146.25 78.2h-22.5v-5.55h7.5v-23.8h-7.5v-5.55h22.5v5.55h-7.5v23.8h7.5zM170.3 78.2h-10.6l-9.25-34.9h8.35l4.1 17.75 2.05 10.05h0.4l2.1-10.05 4.15-17.75h7.95zM209.75 78.2h-8l-2.2-8.4h-9.55l-2.15 8.4h-7.6l9.45-34.9h10.6zM198.4 63.75l-3.4-13.2h-0.4l-3.4 13.2zM237.15 78.2h-22.55v-34.9h7.55v28.75h15z" fill="#ffffff" fill-rule="nonzero" stroke="none" stroke-width="1" stroke-linecap="butt" stroke-linejoin="miter" stroke-miterlimit="10" stroke-dasharray="" stroke-dashoffset="0" font-family="none" font-weight="none" font-size="none" text-anchor="none" style="mix-blend-mode: normal" data-fill-palette-color="primary" opacity="1"></path></g></svg></g></svg></g></svg></g></svg></g></svg></g><defs></defs></svg><rect width="395.52" height="197.9287372013652" fill="none" stroke="none" visibility="hidden"></rect></g></svg></g></svg>